<svg width="410" height="90" viewBox="0 0 410 90" fill="none" xmlns="http://www.w3.org/2000/svg">
<path d="M65.6751 67.8334C62.9686 67.8334 60.5533 67.4908 58.4293 66.8057C56.3394 66.1205 54.4894 64.8357 52.8792 62.9515C52.5366 62.5404 52.2454 62.1806 52.0056 61.8723C51.7658 61.5297 51.526 61.1871 51.2862 60.8445C51.0464 60.5019 50.738 60.0737 50.3612 59.5598C49.9843 59.0459 49.4704 58.4121 48.8195 57.6584C48.0316 56.6992 47.2265 55.9455 46.4042 55.3973C45.6163 54.8149 44.794 54.3867 43.9376 54.1126C43.595 53.9755 43.2181 53.8728 42.807 53.8042C42.3959 53.7357 41.9505 53.6843 41.4709 53.6501C40.9913 53.6158 40.4945 53.5987 39.9806 53.5987C39.1927 53.5987 38.3876 53.6501 37.5653 53.7529C36.7431 53.8214 35.9894 53.9413 35.3042 54.1126C34.5505 54.3181 33.8653 54.6093 33.2487 54.9862C32.6663 55.363 32.1352 55.8084 31.6556 56.3223C31.176 56.8362 30.7306 57.4015 30.3195 58.0181C29.9084 58.6006 29.4801 59.2172 29.0348 59.8681C28.6237 60.4848 28.144 61.1186 27.5959 61.7695C26.4311 63.1742 24.8723 64.4075 22.9195 65.4695C20.9667 66.5316 18.1574 67.0626 14.4917 67.0626C11.2713 67.0626 8.58196 66.6172 6.42362 65.7265C4.26528 64.8015 2.6551 63.2769 1.59306 61.1529C0.531019 59.0288 0 56.1681 0 52.5709C0 50.4126 0.222685 48.2371 0.668056 46.0445C1.14769 43.8177 1.78148 41.6079 2.56945 39.4153C3.35741 37.2227 4.23102 35.1158 5.19029 33.0945C6.18381 31.0732 7.17733 29.1718 8.17085 27.3903C9.19862 25.6088 10.175 24.0158 11.1 22.6111C12.025 21.2065 12.8301 20.0588 13.5153 19.1681C14.6459 17.6607 16.0334 16.0505 17.6778 14.3375C19.3223 12.6246 21.2236 11.0144 23.382 9.50696C25.5746 7.99955 28.0412 6.76621 30.782 5.80695C33.5227 4.84769 36.5718 4.36806 39.9292 4.36806C44.7255 4.36806 49.3163 5.32732 53.7015 7.24585C58.1209 9.13011 62.1807 11.9051 65.8807 15.5709C67.4566 17.1125 68.9297 18.8769 70.3001 20.8639C71.6705 22.851 72.9209 24.9922 74.0515 27.2875C75.2163 29.5487 76.2441 31.8954 77.1348 34.3278C78.0598 36.7602 78.8478 39.2098 79.4987 41.6765C80.1497 44.1089 80.6293 46.4728 80.9376 48.7681C81.2802 51.0635 81.4515 53.2218 81.4515 55.2431C81.4515 59.9024 80.0126 63.1742 77.1348 65.0584C74.2571 66.9084 70.4371 67.8334 65.6751 67.8334ZM45.2737 36.4862C45.9246 36.1093 46.3357 35.6468 46.507 35.0987C46.7126 34.5163 46.8153 33.694 46.8153 32.632C46.8153 32.0496 46.7468 31.4158 46.6098 30.7306C46.4728 30.0112 46.2843 29.3088 46.0445 28.6237C45.8047 27.9385 45.5306 27.3561 45.2223 26.8764C44.7769 26.0885 44.2459 25.4718 43.6292 25.0264C43.0126 24.5468 42.3788 24.307 41.7278 24.307C40.563 24.307 39.5181 24.8037 38.5931 25.7973C37.6681 26.7908 36.9487 27.8014 36.4348 28.8292C36.2977 29.1375 36.1436 29.5144 35.9723 29.9598C35.801 30.3709 35.6468 30.8162 35.5098 31.2959C35.407 31.7755 35.3042 32.2551 35.2014 32.7348C35.1329 33.1801 35.0987 33.5913 35.0987 33.9681C35.0987 35.2357 35.6468 36.1436 36.7431 36.6917C37.8737 37.2399 39.0727 37.5139 40.3403 37.5139C40.9913 37.5139 41.6079 37.4797 42.1903 37.4112C42.807 37.3084 43.3723 37.1885 43.8862 37.0514C44.4343 36.8801 44.8968 36.6917 45.2737 36.4862Z" fill="url(#paint0_linear_24_222)" fill-opacity="0.04"/>
<path d="M96.9991 67.5765C94.0185 67.5765 91.6546 66.857 89.9074 65.4182C88.1944 63.945 86.9611 61.9751 86.2074 59.5084C85.488 57.0075 85.1282 54.2154 85.1282 51.132C85.1282 50.0357 85.1625 48.888 85.231 47.689C85.3338 46.4899 85.4879 45.2908 85.6935 44.0917C85.8991 42.8584 86.156 41.6422 86.4643 40.4431C86.7727 39.2098 87.1495 38.0107 87.5949 36.8459C88.0745 35.6468 88.6055 34.4991 89.188 33.4028C91.8259 28.5037 94.9435 24.9236 98.5407 22.6625C102.172 20.3672 106.438 19.2195 111.337 19.2195C114.351 19.2195 116.835 19.6991 118.788 20.6584C120.741 21.6176 122.3 22.8338 123.464 24.307C124.663 25.7801 125.571 27.3047 126.188 28.8806C126.77 30.3195 127.438 31.57 128.192 32.632C128.98 33.6598 129.957 34.1737 131.121 34.1737C132.389 34.1737 133.417 33.8996 134.205 33.3514C134.993 32.8033 135.866 31.6556 136.826 29.9084C137.682 28.3325 138.795 26.825 140.166 25.3862C141.57 23.913 143.386 22.7139 145.613 21.7889C147.874 20.8297 150.683 20.35 154.041 20.35C159.111 20.35 163.154 21.4806 166.169 23.7417C169.183 25.9686 171.359 29.1033 172.695 33.1459C174.031 37.1885 174.699 41.9163 174.699 47.3292C174.699 48.6654 174.665 49.9501 174.596 51.1834C174.528 52.4167 174.425 53.5987 174.288 54.7292C174.151 55.8255 173.963 56.8705 173.723 57.864C173.483 58.8575 173.192 59.7825 172.849 60.639C171.89 62.9344 170.502 64.7158 168.687 65.9834C166.905 67.2853 164.49 67.9362 161.441 67.9362C158.597 67.9362 156.251 67.3367 154.401 66.1376C152.551 64.9385 151.129 63.3626 150.135 61.4098C149.93 60.9987 149.741 60.5876 149.57 60.1765C149.399 59.7311 149.245 59.2857 149.107 58.8404C148.97 58.3607 148.833 57.8982 148.696 57.4529C148.594 56.9732 148.491 56.4936 148.388 56.014C148.32 55.5001 148.251 54.9862 148.182 54.4723C148.011 52.9992 147.771 51.8172 147.463 50.9265C147.189 50.0357 146.881 49.4019 146.538 49.0251C146.195 48.614 145.819 48.4084 145.407 48.4084C144.859 48.4084 144.328 48.7681 143.814 49.4876C143.301 50.1728 142.821 51.0464 142.376 52.1084C141.964 53.1704 141.57 54.2496 141.194 55.3459C140.132 58.3265 138.795 60.4163 137.185 61.6154C135.609 62.7802 133.194 63.3626 129.939 63.3626C126.582 63.3626 124.081 62.5918 122.437 61.0501C120.792 59.4742 119.679 57.6756 119.096 55.6543C118.617 53.9755 118.188 52.6394 117.812 51.6459C117.469 50.6181 117.109 49.8816 116.732 49.4362C116.356 48.9908 115.893 48.7681 115.345 48.7681C114.9 48.7681 114.403 48.9566 113.855 49.3334C113.307 49.7103 112.793 50.2927 112.313 51.0806C111.97 51.663 111.628 52.314 111.285 53.0334C110.943 53.7529 110.617 54.5237 110.309 55.3459C110.035 56.1339 109.795 56.9561 109.589 57.8126C108.733 61.4783 107.414 64.0307 105.632 65.4695C103.851 66.8742 100.973 67.5765 96.9991 67.5765Z" fill="url(#paint1_linear_24_222)" fill-opacity="0.04"/>
<path d="M193.622 68.0904C189.785 68.0904 186.821 67.4394 184.731 66.1376C182.676 64.8357 181.254 62.9515 180.466 60.4848C179.678 58.0181 179.284 55.0547 179.284 51.5945C179.284 50.5667 179.301 49.5561 179.335 48.5626C179.404 47.5691 179.472 46.6098 179.541 45.6848C179.644 44.7598 179.764 43.869 179.901 43.0126C180.072 42.1218 180.243 41.2653 180.415 40.4431C180.62 39.6209 180.843 38.8329 181.083 38.0792C181.322 37.2913 181.597 36.5547 181.905 35.8695C183.447 32.3065 185.725 29.5658 188.74 27.6473C191.754 25.7287 195.643 24.7695 200.405 24.7695C204.824 24.7695 208.079 26.3283 210.169 29.4459C212.293 32.5292 213.355 36.6746 213.355 41.882C213.355 43.2524 213.304 44.5885 213.201 45.8903C213.132 47.1922 213.012 48.4427 212.841 49.6417C212.67 50.8066 212.447 51.9542 212.173 53.0848C211.933 54.1811 211.625 55.226 211.248 56.2195C210.871 57.1788 210.46 58.1038 210.015 58.9945C209.569 59.8853 209.055 60.7075 208.473 61.4612C206.897 63.5853 204.876 65.2126 202.409 66.3432C199.977 67.508 197.047 68.0904 193.622 68.0904ZM198.606 21.2236C193.639 21.2236 190.024 20.4186 187.763 18.8084C185.502 17.1982 184.372 15.331 184.372 13.207C184.372 10.432 185.365 8.06807 187.352 6.11529C189.339 4.12825 191.823 2.62084 194.804 1.59306C197.818 0.53102 200.867 0 203.951 0C206.212 0 208.302 0.359723 210.22 1.07917C212.173 1.76436 213.749 2.86065 214.948 4.36806C216.147 5.84121 216.747 7.77687 216.747 10.175C216.747 12.9158 215.907 15.0912 214.229 16.7014C212.55 18.3116 210.323 19.4764 207.548 20.1959C204.807 20.8811 201.827 21.2236 198.606 21.2236Z" fill="url(#paint2_linear_24_222)" fill-opacity="0.04"/>
<path d="M236.68 68.0904C232.843 68.0904 229.879 67.4394 227.79 66.1376C225.734 64.8357 224.312 62.9515 223.524 60.4848C222.736 58.0181 222.342 55.0547 222.342 51.5945C222.342 50.5667 222.359 49.5561 222.394 48.5626C222.462 47.5691 222.531 46.6098 222.599 45.6848C222.702 44.7598 222.822 43.869 222.959 43.0126C223.13 42.1218 223.302 41.2653 223.473 40.4431C223.678 39.6209 223.901 38.8329 224.141 38.0792C224.381 37.2913 224.655 36.5547 224.963 35.8695C226.505 32.3065 228.783 29.5658 231.798 27.6473C234.813 25.7287 238.701 24.7695 243.463 24.7695C247.883 24.7695 251.137 26.3283 253.227 29.4459C255.351 32.5292 256.413 36.6746 256.413 41.882C256.413 43.2524 256.362 44.5885 256.259 45.8903C256.191 47.1922 256.071 48.4427 255.899 49.6417C255.728 50.8066 255.505 51.9542 255.231 53.0848C254.991 54.1811 254.683 55.226 254.306 56.2195C253.929 57.1788 253.518 58.1038 253.073 58.9945C252.628 59.8853 252.114 60.7075 251.531 61.4612C249.955 63.5853 247.934 65.2126 245.467 66.3432C243.035 67.508 240.106 68.0904 236.68 68.0904ZM241.665 21.2236C236.697 21.2236 233.083 20.4186 230.822 18.8084C228.56 17.1982 227.43 15.331 227.43 13.207C227.43 10.432 228.423 8.06807 230.41 6.11529C232.397 4.12825 234.881 2.62084 237.862 1.59306C240.877 0.53102 243.926 0 247.009 0C249.27 0 251.36 0.359723 253.279 1.07917C255.231 1.76436 256.807 2.86065 258.006 4.36806C259.205 5.84121 259.805 7.77687 259.805 10.175C259.805 12.9158 258.966 15.0912 257.287 16.7014C255.608 18.3116 253.381 19.4764 250.606 20.1959C247.866 20.8811 244.885 21.2236 241.665 21.2236Z" fill="url(#paint3_linear_24_222)" fill-opacity="0.04"/>
<path d="M292.072 89.7251C286.282 89.7251 281.691 89.3997 278.299 88.7487C274.942 88.0978 272.441 87.2242 270.797 86.1279C269.152 85.0316 268.09 83.7811 267.61 82.3765C267.131 80.9719 266.891 79.533 266.891 78.0598C266.891 76.2098 267.525 74.6682 268.792 73.4348C270.094 72.2358 271.824 71.3279 273.983 70.7112C276.175 70.0946 278.608 69.7862 281.28 69.7862C282.822 69.7862 284.449 69.752 286.162 69.6834C287.875 69.6492 289.536 69.5635 291.147 69.4265C292.757 69.3237 294.213 69.1867 295.515 69.0154C296.851 68.8441 297.93 68.6385 298.752 68.3987C299.095 68.2959 299.386 68.1589 299.626 67.9876C299.866 67.8506 300.071 67.6964 300.242 67.5251C300.414 67.3538 300.534 67.1654 300.602 66.9598C300.705 66.7885 300.756 66.6001 300.756 66.3945C300.756 66.2232 300.722 66.0519 300.654 65.8807C300.585 65.7094 300.482 65.5723 300.345 65.4695C300.208 65.3325 300.02 65.264 299.78 65.264C299.369 65.264 298.855 65.2982 298.238 65.3668C297.622 65.4353 296.902 65.5038 296.08 65.5723C295.292 65.6408 294.418 65.7094 293.459 65.7779C292.5 65.8464 291.489 65.8807 290.427 65.8807C284.98 65.8807 280.389 65.0584 276.655 63.414C272.921 61.7695 270.094 59.2343 268.176 55.8084C266.257 52.3825 265.298 48.0144 265.298 42.7042C265.298 38.3876 266.291 34.6019 268.278 31.3473C270.265 28.0926 272.921 25.369 276.244 23.1764C279.567 20.9838 283.267 19.3394 287.344 18.2431C291.455 17.1468 295.635 16.5986 299.883 16.5986C304.508 16.5986 308.807 17.2838 312.781 18.6542C316.79 19.9903 320.301 21.9773 323.316 24.6153C326.331 27.2533 328.678 30.5422 330.356 34.482C332.035 38.3876 332.874 42.9098 332.874 48.0487C332.874 54.4209 332.035 60.1765 330.356 65.3154C328.678 70.4543 326.142 74.8395 322.751 78.4709C319.393 82.1024 315.145 84.8774 310.006 86.796C304.902 88.7487 298.923 89.7251 292.072 89.7251ZM299.009 48.357C300.208 48.357 301.236 48.22 302.092 47.9459C302.983 47.6718 303.703 47.2778 304.251 46.764C304.799 46.2158 305.21 45.5649 305.484 44.8112C305.758 44.0575 305.895 43.201 305.895 42.2417C305.895 40.9056 305.638 39.7922 305.124 38.9014C304.645 38.0107 303.942 37.3426 303.017 36.8973C302.092 36.4519 300.962 36.2292 299.626 36.2292C298.632 36.2292 297.69 36.4005 296.799 36.7431C295.943 37.0514 295.172 37.4968 294.487 38.0792C293.802 38.6616 293.271 39.3639 292.894 40.1862C292.517 40.9741 292.328 41.8477 292.328 42.807C292.328 43.7663 292.585 44.6741 293.099 45.5306C293.613 46.3871 294.367 47.0723 295.36 47.5862C296.354 48.1001 297.57 48.357 299.009 48.357Z" fill="url(#paint4_linear_24_222)" fill-opacity="0.04"/>
<path d="M374.672 68.964C370.218 68.964 365.902 68.4844 361.722 67.5251C357.577 66.6001 353.842 65.1441 350.519 63.157C347.23 61.1357 344.61 58.532 342.657 55.3459C340.738 52.1598 339.779 48.3056 339.779 43.7834C339.779 38.8158 340.687 34.3963 342.503 30.525C344.353 26.6537 346.888 23.382 350.108 20.7098C353.363 18.0033 357.131 15.9648 361.414 14.5945C365.696 13.1898 370.304 12.4875 375.237 12.4875C380.136 12.4875 384.659 13.0871 388.804 14.2861C392.984 15.4852 396.615 17.2838 399.699 19.682C402.782 22.0801 405.163 25.0778 406.842 28.675C408.555 32.238 409.411 36.4176 409.411 41.214C409.411 45.2223 408.435 48.9223 406.482 52.314C404.529 55.6714 401.891 58.6005 398.568 61.1015C395.279 63.5681 391.562 65.4867 387.417 66.857C383.305 68.2617 379.057 68.964 374.672 68.964ZM373.233 44.5028C374.467 44.5028 375.529 44.3315 376.419 43.989C377.344 43.6121 378.098 43.1153 378.68 42.4987C379.297 41.8477 379.76 41.1283 380.068 40.3403C380.376 39.5524 380.53 38.7302 380.53 37.8737C380.53 36.9487 380.325 36.1436 379.914 35.4584C379.503 34.7732 378.955 34.2079 378.269 33.7626C377.584 33.3172 376.813 32.9917 375.957 32.7862C375.135 32.5463 374.278 32.4264 373.387 32.4264C372.12 32.4264 370.972 32.6663 369.944 33.1459C368.917 33.6255 368.094 34.3107 367.478 35.2014C366.895 36.0922 366.604 37.1542 366.604 38.3876C366.604 39.5524 366.895 40.5973 367.478 41.5223C368.06 42.4473 368.848 43.1839 369.842 43.732C370.869 44.2459 372 44.5028 373.233 44.5028Z" fill="url(#paint5_linear_24_222)" fill-opacity="0.04"/>
<defs>
<linearGradient id="paint0_linear_24_222" x1="205.347" y1="-0.222108" x2="205.347" y2="143.278" gradientUnits="userSpaceOnUse">
<stop/>
<stop offset="1" stop-color="white"/>
</linearGradient>
<linearGradient id="paint1_linear_24_222" x1="205.347" y1="-0.222108" x2="205.347" y2="143.278" gradientUnits="userSpaceOnUse">
<stop/>
<stop offset="1" stop-color="white"/>
</linearGradient>
<linearGradient id="paint2_linear_24_222" x1="205.347" y1="-0.222108" x2="205.347" y2="143.278" gradientUnits="userSpaceOnUse">
<stop/>
<stop offset="1" stop-color="white"/>
</linearGradient>
<linearGradient id="paint3_linear_24_222" x1="205.347" y1="-0.222108" x2="205.347" y2="143.278" gradientUnits="userSpaceOnUse">
<stop/>
<stop offset="1" stop-color="white"/>
</linearGradient>
<linearGradient id="paint4_linear_24_222" x1="205.347" y1="-0.222108" x2="205.347" y2="143.278" gradientUnits="userSpaceOnUse">
<stop/>
<stop offset="1" stop-color="white"/>
</linearGradient>
<linearGradient id="paint5_linear_24_222" x1="205.347" y1="-0.222108" x2="205.347" y2="143.278" gradientUnits="userSpaceOnUse">
<stop/>
<stop offset="1" stop-color="white"/>
</linearGradient>
</defs>
</svg>
