<svg width="26" height="26" viewBox="0 0 26 26" fill="none" xmlns="http://www.w3.org/2000/svg">
<g clip-path="url(#clip0_24_219)">
<g filter="url(#filter0_d_24_219)">
<path d="M11 4C10.7167 4 10.4792 3.90417 10.2875 3.7125C10.0958 3.52083 10 3.28333 10 3C10 2.71667 10.0958 2.47917 10.2875 2.2875C10.4792 2.09583 10.7167 2 11 2H15C15.2833 2 15.5208 2.09583 15.7125 2.2875C15.9042 2.47917 16 2.71667 16 3C16 3.28333 15.9042 3.52083 15.7125 3.7125C15.5208 3.90417 15.2833 4 15 4H11ZM13 15C13.2833 15 13.5208 14.9042 13.7125 14.7125C13.9042 14.5208 14 14.2833 14 14V10C14 9.71667 13.9042 9.47917 13.7125 9.2875C13.5208 9.09583 13.2833 9 13 9C12.7167 9 12.4792 9.09583 12.2875 9.2875C12.0958 9.47917 12 9.71667 12 10V14C12 14.2833 12.0958 14.5208 12.2875 14.7125C12.4792 14.9042 12.7167 15 13 15ZM13 23C11.7667 23 10.6042 22.7625 9.5125 22.2875C8.42083 21.8125 7.46667 21.1667 6.65 20.35C5.83333 19.5333 5.1875 18.5792 4.7125 17.4875C4.2375 16.3958 4 15.2333 4 14C4 12.7667 4.2375 11.6042 4.7125 10.5125C5.1875 9.42083 5.83333 8.46667 6.65 7.65C7.46667 6.83333 8.42083 6.1875 9.5125 5.7125C10.6042 5.2375 11.7667 5 13 5C14.0333 5 15.025 5.16667 15.975 5.5C16.925 5.83333 17.8167 6.31667 18.65 6.95L19.35 6.25C19.5333 6.06667 19.7667 5.975 20.05 5.975C20.3333 5.975 20.5667 6.06667 20.75 6.25C20.9333 6.43333 21.025 6.66667 21.025 6.95C21.025 7.23333 20.9333 7.46667 20.75 7.65L20.05 8.35C20.6833 9.18333 21.1667 10.075 21.5 11.025C21.8333 11.975 22 12.9667 22 14C22 15.2333 21.7625 16.3958 21.2875 17.4875C20.8125 18.5792 20.1667 19.5333 19.35 20.35C18.5333 21.1667 17.5792 21.8125 16.4875 22.2875C15.3958 22.7625 14.2333 23 13 23Z" fill="url(#paint0_linear_24_219)"/>
<path d="M13 4.5C14.0882 4.5 15.136 4.67583 16.1406 5.02832C17.0076 5.33252 17.8266 5.75525 18.5977 6.29395L18.9961 5.89648C19.2823 5.61027 19.6475 5.47465 20.0498 5.47461C20.4522 5.47461 20.8173 5.61022 21.1035 5.89648C21.3898 6.18275 21.5254 6.5478 21.5254 6.9502C21.5253 7.35251 21.3897 7.71769 21.1035 8.00391L20.7051 8.40137C21.2441 9.17278 21.6673 9.99201 21.9717 10.8594C22.3242 11.864 22.5 12.9118 22.5 14C22.5 15.2993 22.2493 16.5298 21.7461 17.6865C21.2469 18.8339 20.5655 19.8408 19.7031 20.7031C18.8408 21.5655 17.8339 22.2469 16.6865 22.7461C15.5298 23.2493 14.2993 23.5 13 23.5C11.7007 23.5 10.4702 23.2493 9.31348 22.7461C8.16614 22.2469 7.15924 21.5655 6.29688 20.7031C5.43451 19.8408 4.75313 18.8339 4.25391 17.6865C3.75066 16.5298 3.5 15.2993 3.5 14C3.5 12.7007 3.75066 11.4702 4.25391 10.3135C4.75313 9.16614 5.43451 8.15924 6.29688 7.29688C7.15924 6.43451 8.16614 5.75313 9.31348 5.25391C10.4702 4.75066 11.7007 4.5 13 4.5ZM13 9.5C12.8426 9.5 12.7339 9.54735 12.6406 9.64062C12.5474 9.7339 12.5 9.84258 12.5 10V14C12.5 14.1574 12.5474 14.2661 12.6406 14.3594C12.7339 14.4526 12.8426 14.5 13 14.5C13.1574 14.5 13.2661 14.4526 13.3594 14.3594C13.4526 14.2661 13.5 14.1574 13.5 14V10C13.5 9.84258 13.4526 9.7339 13.3594 9.64062C13.2661 9.54735 13.1574 9.5 13 9.5ZM15 1.5C15.4093 1.5 15.7763 1.64353 16.0664 1.93359C16.3565 2.22366 16.5 2.59075 16.5 3C16.5 3.40925 16.3565 3.77634 16.0664 4.06641C15.7763 4.35647 15.4093 4.5 15 4.5H11C10.5907 4.5 10.2237 4.35647 9.93359 4.06641C9.64353 3.77634 9.5 3.40925 9.5 3C9.5 2.59075 9.64353 2.22366 9.93359 1.93359C10.2237 1.64353 10.5907 1.5 11 1.5H15Z" stroke="white"/>
</g>
</g>
<rect x="0.7" y="0.7" width="24.6" height="24.6" rx="4.3" stroke="#E4E4E4" stroke-width="0.6"/>
<defs>
<filter id="filter0_d_24_219" x="1" y="0" width="24" height="27" filterUnits="userSpaceOnUse" color-interpolation-filters="sRGB">
<feFlood flood-opacity="0" result="BackgroundImageFix"/>
<feColorMatrix in="SourceAlpha" type="matrix" values="0 0 0 0 0 0 0 0 0 0 0 0 0 0 0 0 0 0 127 0" result="hardAlpha"/>
<feOffset dy="1"/>
<feGaussianBlur stdDeviation="1"/>
<feComposite in2="hardAlpha" operator="out"/>
<feColorMatrix type="matrix" values="0 0 0 0 0 0 0 0 0 0 0 0 0 0 0 0 0 0 0.1 0"/>
<feBlend mode="normal" in2="BackgroundImageFix" result="effect1_dropShadow_24_219"/>
<feBlend mode="normal" in="SourceGraphic" in2="effect1_dropShadow_24_219" result="shape"/>
</filter>
<linearGradient id="paint0_linear_24_219" x1="13" y1="2" x2="13" y2="23" gradientUnits="userSpaceOnUse">
<stop stop-color="#40ADE2"/>
<stop offset="1" stop-color="#62C6F6"/>
</linearGradient>
<clipPath id="clip0_24_219">
<rect x="1" y="1" width="24" height="24" rx="4" fill="white"/>
</clipPath>
</defs>
</svg>
