<svg width="26" height="26" viewBox="0 0 26 26" fill="none" xmlns="http://www.w3.org/2000/svg">
<g clip-path="url(#clip0_24_220)">
<g filter="url(#filter0_d_24_220)">
<path d="M9.70002 22.3C9.50002 22.1 9.40002 21.8625 9.40002 21.5875C9.40002 21.3125 9.50002 21.075 9.70002 20.875L12.9 17.7C13.1 17.5 13.3334 17.4 13.6 17.4C13.8667 17.4 14.1 17.5 14.3 17.7C14.5 17.9 14.6 18.1375 14.6 18.4125C14.6 18.6875 14.5 18.925 14.3 19.125L11.125 22.3C10.925 22.5 10.6875 22.6 10.4125 22.6C10.1375 22.6 9.90002 22.5 9.70002 22.3ZM14.7 22.3C14.5 22.1 14.4 21.8625 14.4 21.5875C14.4 21.3125 14.5 21.075 14.7 20.875L17.375 18.2C17.575 18 17.8125 17.9 18.0875 17.9C18.3625 17.9 18.6 18 18.8 18.2C19 18.4 19.1 18.6375 19.1 18.9125C19.1 19.1875 19 19.425 18.8 19.625L16.125 22.3C15.925 22.5 15.6875 22.6 15.4125 22.6C15.1375 22.6 14.9 22.5 14.7 22.3ZM3.70002 11.3C3.50002 11.1 3.40002 10.8625 3.40002 10.5875C3.40002 10.3125 3.50002 10.075 3.70002 9.875L6.37502 7.2C6.57502 7 6.81252 6.9 7.08752 6.9C7.36252 6.9 7.60002 7 7.80002 7.2C8.00002 7.4 8.10002 7.6375 8.10002 7.9125C8.10002 8.1875 8.00002 8.425 7.80002 8.625L5.12502 11.3C4.92502 11.5 4.68752 11.6 4.41252 11.6C4.13752 11.6 3.90002 11.5 3.70002 11.3ZM3.70002 16.3C3.50002 16.1 3.40002 15.8625 3.40002 15.5875C3.40002 15.3125 3.50002 15.075 3.70002 14.875L6.87502 11.7C7.07502 11.5 7.31252 11.4 7.58752 11.4C7.86252 11.4 8.10002 11.5 8.30002 11.7C8.50002 11.9 8.60002 12.1375 8.60002 12.4125C8.60002 12.6875 8.50002 12.925 8.30002 13.125L5.12502 16.3C4.92502 16.5 4.68752 16.6 4.41252 16.6C4.13752 16.6 3.90002 16.5 3.70002 16.3ZM13.175 12.8L10.8 11.475C10.6 11.3583 10.4917 11.1792 10.475 10.9375C10.4584 10.6958 10.6 10.425 10.9 10.125C10.9834 10.0417 11.0792 9.97917 11.1875 9.9375C11.2959 9.89583 11.4084 9.89167 11.525 9.925L13.525 10.325L15.475 8.375L10.675 6.45C10.3917 6.33333 10.225 6.13333 10.175 5.85C10.125 5.56667 10.2084 5.325 10.425 5.125L10.7 4.85C10.7834 4.76667 10.8875 4.70417 11.0125 4.6625C11.1375 4.62083 11.2667 4.61667 11.4 4.65L18.175 5.7L20.45 3.45C20.6 3.3 20.7667 3.1875 20.95 3.1125C21.1334 3.0375 21.3167 3 21.5 3C21.6834 3 21.8667 3.0375 22.05 3.1125C22.2334 3.1875 22.4 3.3 22.55 3.45C22.7 3.58333 22.8125 3.74167 22.8875 3.925C22.9625 4.10833 23 4.29167 23 4.475C23 4.65833 22.9625 4.84583 22.8875 5.0375C22.8125 5.22917 22.7 5.4 22.55 5.55L20.275 7.8L21.325 14.525C21.3584 14.6583 21.3542 14.7958 21.3125 14.9375C21.2709 15.0792 21.2 15.2 21.1 15.3L21 15.425C20.7667 15.675 20.4834 15.7667 20.15 15.7C19.8167 15.6333 19.5834 15.4417 19.45 15.125L17.6 10.5L15.65 12.45L16.025 14.4C16.0584 14.5333 16.0542 14.6667 16.0125 14.8C15.9709 14.9333 15.8667 15.0833 15.7 15.25C15.5167 15.4333 15.2917 15.5042 15.025 15.4625C14.7584 15.4208 14.5584 15.2833 14.425 15.05L13.175 12.8Z" fill="url(#paint0_linear_24_220)"/>
<path d="M13.6002 16.9004C14.0081 16.9004 14.3665 17.0593 14.6539 17.3467C14.9444 17.6373 15.1001 18.0006 15.1002 18.4121C15.1002 18.8238 14.9446 19.1878 14.6539 19.4785L11.4781 22.6533C11.1874 22.944 10.8244 23.0996 10.4127 23.0996C10.0009 23.0996 9.63709 22.9441 9.34631 22.6533C9.05576 22.3627 8.90012 21.9994 8.90002 21.5879C8.90002 21.1762 9.0556 20.8122 9.34631 20.5215L9.34827 20.5205L12.5475 17.3447C12.8347 17.0581 13.1929 16.9004 13.6002 16.9004ZM18.0875 17.4004C18.4993 17.4004 18.8632 17.5559 19.1539 17.8467C19.4444 18.1373 19.6001 18.5006 19.6002 18.9121C19.6002 19.3238 19.4446 19.6878 19.1539 19.9785L16.4781 22.6533C16.1874 22.944 15.8244 23.0996 15.4127 23.0996C15.0009 23.0996 14.6371 22.9441 14.3463 22.6533C14.0558 22.3627 13.9001 21.9994 13.9 21.5879C13.9 21.1762 14.0556 20.8122 14.3463 20.5215L17.0211 17.8467C17.3119 17.5559 17.6757 17.4004 18.0875 17.4004ZM7.58752 10.9004C7.99931 10.9004 8.36315 11.0559 8.65393 11.3467C8.94443 11.6373 9.10012 12.0006 9.10022 12.4121C9.10022 12.8238 8.94458 13.1878 8.65393 13.4785L5.47815 16.6533C5.18744 16.944 4.82437 17.0996 4.41272 17.0996C4.00094 17.0996 3.63709 16.9441 3.34631 16.6533C3.05576 16.3627 2.90012 15.9994 2.90002 15.5879C2.90002 15.1762 3.0556 14.8122 3.34631 14.5215L6.52112 11.3467C6.81189 11.0559 7.17574 10.9004 7.58752 10.9004ZM21.4996 2.5C21.7528 2.5 22.0005 2.55196 22.2389 2.64941C22.4788 2.74757 22.693 2.89266 22.8815 3.07617C22.8851 3.07941 22.8896 3.08268 22.8932 3.08594C22.8967 3.0894 22.9004 3.09319 22.9039 3.09668H22.903C23.0986 3.27605 23.2496 3.48953 23.3502 3.73535C23.4478 3.97378 23.4996 4.22142 23.4996 4.47461C23.4996 4.72747 23.4481 4.97709 23.3531 5.21973C23.2523 5.47748 23.101 5.70615 22.9039 5.90332L22.902 5.90527L20.8082 7.97461L21.819 14.4482H21.818C21.8628 14.6597 21.8531 14.8721 21.7926 15.0781C21.7336 15.2786 21.6312 15.4578 21.4899 15.6113L21.4908 15.6123L21.3903 15.7373L21.3785 15.752L21.3658 15.7666C21.0152 16.1422 20.5567 16.2912 20.0524 16.1904C19.5544 16.0908 19.1857 15.7867 18.9889 15.3193L18.986 15.3105L17.4166 11.3896L16.191 12.6152L16.5162 14.3057H16.5153C16.5642 14.521 16.5557 14.7384 16.4899 14.9492C16.4129 15.1956 16.2428 15.4141 16.0533 15.6035C15.7518 15.905 15.3647 16.0212 14.9479 15.9561C14.5318 15.891 14.2 15.6638 13.9908 15.2979L13.9879 15.293L12.8063 13.166L10.5563 11.9121L10.5485 11.9072C10.1977 11.7026 10.0036 11.3695 9.9762 10.9717C9.94431 10.508 10.2169 10.1011 10.5465 9.77148C10.6785 9.63946 10.8338 9.53788 11.0084 9.4707C11.2095 9.39347 11.4184 9.38557 11.6217 9.43555L11.6227 9.43457L13.36 9.78223L14.5856 8.55664L10.4889 6.91406L10.485 6.91211C10.0557 6.73535 9.76426 6.40122 9.68225 5.93652C9.60197 5.48085 9.74788 5.06968 10.0856 4.75781L10.3463 4.49609C10.4906 4.35182 10.6645 4.25175 10.8541 4.18848C11.0583 4.12042 11.2684 4.11251 11.4752 4.15625H11.4762L18.0026 5.16699L20.0983 3.09473C20.2914 2.90203 20.5122 2.75099 20.7604 2.64941C20.9988 2.55188 21.2464 2.50005 21.4996 2.5ZM7.08752 6.40039C7.49931 6.40039 7.86315 6.5559 8.15393 6.84668C8.44443 7.13731 8.60012 7.50063 8.60022 7.91211C8.60022 8.3238 8.44458 8.68777 8.15393 8.97852L5.47815 11.6533C5.18744 11.944 4.82437 12.0996 4.41272 12.0996C4.00094 12.0996 3.63709 11.9441 3.34631 11.6533C3.05576 11.3627 2.90012 10.9994 2.90002 10.5879C2.90002 10.1762 3.0556 9.81224 3.34631 9.52148L6.02112 6.84668C6.31189 6.5559 6.67574 6.40039 7.08752 6.40039Z" stroke="white"/>
</g>
</g>
<rect x="0.75" y="0.75" width="24.5" height="24.5" rx="4.25" stroke="#E4E4E4" stroke-width="0.5"/>
<defs>
<filter id="filter0_d_24_220" x="0.400024" y="1" width="25.6" height="25.6" filterUnits="userSpaceOnUse" color-interpolation-filters="sRGB">
<feFlood flood-opacity="0" result="BackgroundImageFix"/>
<feColorMatrix in="SourceAlpha" type="matrix" values="0 0 0 0 0 0 0 0 0 0 0 0 0 0 0 0 0 0 127 0" result="hardAlpha"/>
<feOffset dy="1"/>
<feGaussianBlur stdDeviation="1"/>
<feComposite in2="hardAlpha" operator="out"/>
<feColorMatrix type="matrix" values="0 0 0 0 0 0 0 0 0 0 0 0 0 0 0 0 0 0 0.1 0"/>
<feBlend mode="normal" in2="BackgroundImageFix" result="effect1_dropShadow_24_220"/>
<feBlend mode="normal" in="SourceGraphic" in2="effect1_dropShadow_24_220" result="shape"/>
</filter>
<linearGradient id="paint0_linear_24_220" x1="13.2" y1="3" x2="13.2" y2="22.6" gradientUnits="userSpaceOnUse">
<stop stop-color="#40ADE2"/>
<stop offset="1" stop-color="#62C6F6"/>
</linearGradient>
<clipPath id="clip0_24_220">
<rect x="1" y="1" width="24" height="24" rx="4" fill="white"/>
</clipPath>
</defs>
</svg>
