<svg width="26" height="26" viewBox="0 0 26 26" fill="none" xmlns="http://www.w3.org/2000/svg">
<g clip-path="url(#clip0_24_221)">
<g filter="url(#filter0_d_24_221)">
<path d="M14.55 13.475L17.75 11.325C18.05 11.125 18.2 10.85 18.2 10.5C18.2 10.15 18.05 9.875 17.75 9.675L14.55 7.525C14.2167 7.29167 13.875 7.275 13.525 7.475C13.175 7.675 13 7.975 13 8.375V12.625C13 13.025 13.175 13.325 13.525 13.525C13.875 13.725 14.2167 13.7083 14.55 13.475ZM6.7 22.875C6.15 22.9583 5.65417 22.8292 5.2125 22.4875C4.77084 22.1458 4.51667 21.7 4.45 21.15L3.125 10.225C3.05834 9.675 3.19167 9.18333 3.525 8.75C3.85834 8.31667 4.3 8.06667 4.85 8L6 7.85V16C6 17.1 6.39167 18.0417 7.175 18.825C7.95834 19.6083 8.9 20 10 20H19.3C19.2 20.4 19 20.7458 18.7 21.0375C18.4 21.3292 18.0333 21.5 17.6 21.55L6.7 22.875ZM10 18C9.45 18 8.97917 17.8042 8.5875 17.4125C8.19584 17.0208 8 16.55 8 16V5C8 4.45 8.19584 3.97917 8.5875 3.5875C8.97917 3.19583 9.45 3 10 3H21C21.55 3 22.0208 3.19583 22.4125 3.5875C22.8042 3.97917 23 4.45 23 5V16C23 16.55 22.8042 17.0208 22.4125 17.4125C22.0208 17.8042 21.55 18 21 18H10Z" fill="url(#paint0_linear_24_221)"/>
<path d="M6.49994 16C6.49994 16.9663 6.83797 17.7814 7.52826 18.4717C8.21856 19.162 9.03363 19.5 9.99994 19.5H19.9404L19.7851 20.1211C19.6622 20.6127 19.4144 21.041 19.0488 21.3965C18.6661 21.7685 18.1951 21.9848 17.6572 22.0469L17.6562 22.0459L6.76068 23.3711L6.7597 23.3701C6.07976 23.4694 5.45148 23.3046 4.90619 22.8828C4.3599 22.4601 4.03692 21.8937 3.95404 21.21L2.62885 10.2852C2.54665 9.60704 2.71445 8.98405 3.12885 8.44531C3.54426 7.90528 4.10601 7.58737 4.7851 7.50391L5.93549 7.35449L6.49994 7.28027V16ZM20.9999 2.5C21.6836 2.5 22.2819 2.74969 22.7665 3.23438C23.2509 3.71898 23.4999 4.31655 23.4999 5V16C23.4999 16.6834 23.2509 17.281 22.7665 17.7656C22.2819 18.2503 21.6836 18.5 20.9999 18.5H9.99994C9.3163 18.5 8.71899 18.2503 8.23431 17.7656C7.74965 17.2809 7.49994 16.6836 7.49994 16V5C7.49994 4.31635 7.74965 3.71906 8.23431 3.23438C8.71899 2.7497 9.3163 2.50002 9.99994 2.5H20.9999ZM14.0195 7.83691C13.9597 7.834 13.8805 7.84798 13.7734 7.90918C13.5777 8.02102 13.4999 8.15616 13.4999 8.375V12.625C13.4999 12.8438 13.5777 12.979 13.7734 13.0908C13.8805 13.152 13.9597 13.166 14.0195 13.1631C14.0796 13.1601 14.1594 13.1384 14.2636 13.0654L14.2714 13.0596L17.4716 10.9102L17.4726 10.9092C17.6385 10.7986 17.7001 10.6769 17.7001 10.5C17.7001 10.3231 17.6385 10.2014 17.4726 10.0908L17.4716 10.0898L14.2714 7.94043L14.2636 7.93457C14.1594 7.86164 14.0796 7.83986 14.0195 7.83691Z" stroke="white"/>
</g>
</g>
<rect x="0.75" y="0.75" width="24.5" height="24.5" rx="4.25" stroke="#E4E4E4" stroke-width="0.5"/>
<defs>
<filter id="filter0_d_24_221" x="0.108398" y="1" width="25.8916" height="25.8995" filterUnits="userSpaceOnUse" color-interpolation-filters="sRGB">
<feFlood flood-opacity="0" result="BackgroundImageFix"/>
<feColorMatrix in="SourceAlpha" type="matrix" values="0 0 0 0 0 0 0 0 0 0 0 0 0 0 0 0 0 0 127 0" result="hardAlpha"/>
<feOffset dy="1"/>
<feGaussianBlur stdDeviation="1"/>
<feComposite in2="hardAlpha" operator="out"/>
<feColorMatrix type="matrix" values="0 0 0 0 0 0 0 0 0 0 0 0 0 0 0 0 0 0 0.1 0"/>
<feBlend mode="normal" in2="BackgroundImageFix" result="effect1_dropShadow_24_221"/>
<feBlend mode="normal" in="SourceGraphic" in2="effect1_dropShadow_24_221" result="shape"/>
</filter>
<linearGradient id="paint0_linear_24_221" x1="13.0542" y1="3" x2="13.0542" y2="22.8995" gradientUnits="userSpaceOnUse">
<stop stop-color="#40ADE2"/>
<stop offset="1" stop-color="#62C6F6"/>
</linearGradient>
<clipPath id="clip0_24_221">
<rect x="1" y="1" width="24" height="24" rx="4" fill="white"/>
</clipPath>
</defs>
</svg>
